<svg width="{{ size }}" height="{{ size }}" xmlns="http://www.w3.org/2000/svg" xmlns:xlink="http://www.w3.org/1999/xlink">
    <defs>
        <path id="dark_square" d="M0 0h72v72H0V0" fill="{{ dark }}"/>
        <path id="light_square" d="M0 0h72v72H0V0" fill="{{ light }}"/>

        <path id="borders" d="M.25.25h577.5v577.5H.25V.25" stroke-width=".5" fill="none" stroke="#000"/>

        <g id="w_p">
            <path stroke-dashoffset="10" stroke-linecap="round" stroke-width="2.4" stroke="#000" fill="#fff" d="M36 14.204a6.402 6.402 0 0 0-5.15 10.2c-3.122 1.795-5.25 5.14-5.25 9a10.352 10.352 0 0 0 3.85 8.05c-4.799 1.694-11.85 8.875-11.85 21.55h36.8c0-12.675-7.051-19.856-11.85-21.55a10.352 10.352 0 0 0 3.85-8.05c0-3.86-2.128-7.205-5.25-9a6.402 6.402 0 0 0-5.15-10.2"/>
        </g>
        <g id="b_p">
            <path stroke-dashoffset="10" stroke-linecap="round" stroke="#000" stroke-width="1.6" d="M36 14.202a6.402 6.402 0 0 0-5.15 10.2c-3.122 1.795-5.25 5.14-5.25 9a10.352 10.352 0 0 0 3.85 8.05c-4.799 1.694-11.85 8.875-11.85 21.55h36.8c0-12.675-7.051-19.856-11.85-21.55a10.352 10.352 0 0 0 3.85-8.05c0-3.86-2.128-7.205-5.25-9a6.402 6.402 0 0 0-5.15-10.2"/>
        </g>
        <g id="w_n"
            stroke-linecap="round" stroke="#000">
            <path stroke-width="2.4" fill-rule="evenodd" fill="#fff" d="M35.977 16.604c16.8 1.6 26.4 12.8 25.6 46.4h-36.8c0-14.4 16-10.4 12.8-33.6"/>
            <path stroke-linejoin="round" stroke-width="2.4" fill-rule="evenodd" fill="#fff" d="M39.177 29.404c.614 4.658-8.885 11.79-12.8 14.4-4.8 3.2-4.512 6.949-8 6.4-1.667-1.51 2.26-4.86 0-4.8-1.6 0 .3 1.971-1.6 3.2-1.6 0-6.405 1.6-6.4-6.4 0-3.2 9.6-19.2 9.6-19.2s3.018-3.043 3.2-5.6c-1.162-1.59-.8-3.2-.8-4.8 1.6-1.6 4.8 4 4.8 4h3.2s1.251-3.187 4-4.8c1.6 0 1.6 4.8 1.6 4.8"/>
            <path stroke-linejoin="round" stroke-width="2.4" d="M15.977 41.404a.8.8 0 1 1-1.6 0 .8.8 0 0 1 1.6 0"/>
            <path stroke-linejoin="round" stroke-width="2.4" d="M24.67 25.804c-.663 1.148-1.51 1.9-1.893 1.678-.383-.22-.155-1.33.507-2.478.663-1.148 1.51-1.9 1.893-1.678.383.22.155 1.33-.507 2.478"/>
            <path fill-rule="evenodd" fill-opacity=".75" fill="none" d="M59.977 63.004c1.6-32-8.8-44-19.2-45.6"/>
        </g>
        <g id="b_n"
            stroke-width="1.6">
            <path stroke-linecap="round" stroke="#000" fill-rule="evenodd" d="M35.977 16.602c16.8 1.6 26.4 12.8 25.6 46.4h-36.8c0-14.4 16-10.4 12.8-33.6"/>
            <path stroke-linejoin="round" stroke-linecap="round" stroke="#000" fill-rule="evenodd" d="M39.177 29.402c.614 4.658-8.885 11.79-12.8 14.4-4.8 3.2-4.512 6.949-8 6.4-1.667-1.51 2.26-4.86 0-4.8-1.6 0 .3 1.971-1.6 3.2-1.6 0-6.405 1.6-6.4-6.4 0-3.2 9.6-19.2 9.6-19.2s3.018-3.043 3.2-5.6c-1.162-1.59-.8-3.2-.8-4.8 1.6-1.6 4.8 4 4.8 4h3.2s1.251-3.187 4-4.8c1.6 0 1.6 4.8 1.6 4.8"/>
            <path stroke-linejoin="round" stroke-linecap="round" stroke="#fff" d="M15.977 41.402a.8.8 0 1 1-1.6 0 .8.8 0 0 1 1.6 0"/>
            <path stroke-linejoin="round" stroke-linecap="round" stroke="#fff" d="M24.67 25.802c-.318.551-.697 1.038-1.052 1.353-.355.314-.657.432-.841.325-.184-.106-.234-.426-.138-.891.095-.465.327-1.036.645-1.587.318-.551.697-1.038 1.052-1.353.355-.314.657-.432.841-.325.184.106.234.426.138.891-.095.465-.327 1.036-.645 1.587"/>
            <path stroke-linecap="square" fill-rule="evenodd" fill="#fff" d="M40.057 17.242l-.48 1.76.88.16c4.962.763 10.118 3.574 13.72 10.39 3.602 6.816 4.675 17.541 3.88 33.45l-.08.8h2.8v-.8c.805-16.091-1.402-26.965-5.2-34.15-3.798-7.184-9.262-10.613-14.7-11.45l-.82-.16"/>
        </g>
        <g id="w_b"
            stroke-width="2.4" stroke="#000">
            <path stroke-linejoin="round" fill-rule="evenodd" fill="#fff" d="M14.4 58.499c5.416-1.555 16.184.688 21.6-3.2 5.416 3.888 16.184 1.645 21.6 3.2 0 0 2.634.867 4.8 3.2-1.083 1.555-2.634 1.578-4.8.8-5.416-1.555-16.184.733-21.6-1.6-5.416 2.333-16.184.045-21.6 1.6-2.166.778-3.717.755-4.8-.8 2.166-3.112 4.8-3.2 4.8-3.2"/>
            <path stroke-linejoin="round" fill-rule="evenodd" fill="#fff" d="M24 52.099c4 4 20 4 24 0 .8-2.4 0-3.2 0-3.2 0-4-4-6.4-4-6.4 8.8-2.4 9.6-18.4-8-24.8-17.6 6.4-16.8 22.4-8 24.8 0 0-4 2.4-4 6.4 0 0-.8.8 0 3.2"/>
            <path stroke-linejoin="round" fill="#fff" d="M40 13.699a4 4 0 1 1-8 0 4 4 0 0 1 8 0"/>
            <path fill-rule="evenodd" fill-opacity=".75" fill="none" d="M28 42.499h16"/>
            <path fill-rule="evenodd" fill-opacity=".75" fill="none" d="M24 48.899h24"/>
            <path stroke-linecap="round" fill-rule="evenodd" fill-opacity=".75" fill="none" d="M36 25.699v8"/>
            <path stroke-linecap="round" fill-rule="evenodd" fill-opacity=".75" fill="none" d="M32 29.699h8"/>
        </g>
        <g id="b_b"
            stroke-width="2.4">
            <path stroke-linejoin="round" stroke="#000" fill-rule="evenodd" d="M14.4 58.098c5.416-1.555 16.184.688 21.6-3.2 5.416 3.888 16.184 1.645 21.6 3.2 0 0 2.634.867 4.8 3.2-1.083 1.555-2.634 1.578-4.8.8-5.416-1.555-16.184.733-21.6-1.6-5.416 2.333-16.184.045-21.6 1.6-2.166.778-3.717.755-4.8-.8 2.166-3.112 4.8-3.2 4.8-3.2"/>
            <path stroke-linejoin="round" stroke="#000" fill-rule="evenodd" d="M24 51.698c4 4 20 4 24 0 .8-2.4 0-3.2 0-3.2 0-4-4-6.4-4-6.4 8.8-2.4 9.6-18.4-8-24.8-17.6 6.4-16.8 22.4-8 24.8 0 0-4 2.4-4 6.4 0 0-.8.8 0 3.2"/>
            <path stroke-linejoin="round" stroke="#000" d="M40 13.298a4 4 0 1 1-8 0 4 4 0 0 1 8 0"/>
            <path stroke-linecap="round" stroke="#fff" fill-rule="evenodd" fill-opacity=".75" fill="none" d="M28 42.098h16"/>
            <path stroke-linecap="round" stroke="#fff" fill-rule="evenodd" fill-opacity=".75" fill="none" d="M24 48.498h24"/>
            <path stroke-linecap="round" stroke="#fff" fill-rule="evenodd" fill-opacity=".75" fill="none" d="M36 25.298v8"/>
            <path stroke-linecap="round" stroke="#fff" fill-rule="evenodd" fill-opacity=".75" fill="none" d="M32 29.298h8"/>
        </g>
        <g id="w_r"
            stroke="#000" fill-rule="evenodd">
            <path stroke-linejoin="round" stroke-width="2.4" fill="#fff" d="M14.4 63.004h43.2v-4.8H14.4v4.8"/>
            <path stroke-linejoin="round" stroke-width="2.4" fill="#fff" d="M19.2 58.204v-6.4h33.6v6.4H19.2"/>
            <path stroke-linejoin="round" stroke-width="2.4" fill="#fff" d="M17.6 23.004v-8H24v3.2h8v-3.2h8v3.2h8v-3.2h6.4v8"/>
            <path stroke-linejoin="round" stroke-linecap="round" stroke-width="2.4" fill="#fff" d="M54.4 23.004l-4.8 4.8H22.4l-4.8-4.8"/>
            <path stroke-width="2.4" fill="#fff" d="M49.6 27.804v20H22.4v-20"/>
            <path stroke-linejoin="round" stroke-linecap="round" stroke-width="2.4" fill="#fff" d="M49.6 47.804l2.4 4H20l2.4-4"/>
            <path stroke-linecap="round" fill-opacity=".75" fill="none" d="M17.6 23.004h36.8"/>
        </g>
        <g id="b_r"
            fill-rule="evenodd">
            <path stroke-linejoin="round" stroke-width="2.4" stroke="#000" d="M14.4 62.602h43.2v-4.8H14.4v4.8"/>
            <path stroke-linejoin="round" stroke-width="2.4" stroke="#000" d="M20 51.402l2.4-4h27.2l2.4 4H20"/>
            <path stroke-linejoin="round" stroke-width="2.4" stroke="#000" d="M19.2 57.802v-6.4h33.6v6.4H19.2"/>
            <path stroke-width="2.4" stroke="#000" d="M22.4 47.402v-20.8h27.2v20.8H22.4"/>
            <path stroke-linejoin="round" stroke-width="2.4" stroke="#000" d="M22.4 26.602l-4.8-4h36.8l-4.8 4H22.4"/>
            <path stroke-linejoin="round" stroke-width="2.4" stroke="#000" d="M17.6 22.602v-8H24v3.2h8v-3.2h8v3.2h8v-3.2h6.4v8H17.6"/>
            <path stroke-linecap="round" stroke-width="1.6" stroke="#fff" fill-opacity=".75" fill="none" d="M19.2 57.002h33.6"/>
            <path stroke-linecap="round" stroke-width="1.6" stroke="#fff" fill-opacity=".75" fill="none" d="M20.8 50.602h30.4"/>
            <path stroke-linecap="round" stroke-width="1.6" stroke="#fff" fill-opacity=".75" fill="none" d="M22.4 47.402h27.2"/>
            <path stroke-linecap="round" stroke-width="1.6" stroke="#fff" fill-opacity=".75" fill="none" d="M22.4 26.602h27.2"/>
            <path stroke-linecap="round" stroke-width="1.6" stroke="#fff" fill-opacity=".75" fill="none" d="M17.6 22.602h36.8"/>
        </g>
        <g id="w_q"
            stroke-linejoin="round" stroke="#000" stroke-width="2.4">
            <path stroke-linecap="round" fill="#fff" d="M12.8 19.396a3.2 3.2 0 1 1-6.4 0 3.2 3.2 0 0 1 6.4 0"/>
            <path stroke-linecap="round" fill="#fff" d="M39.2 12.196a3.2 3.2 0 1 1-6.4 0 3.2 3.2 0 0 1 6.4 0"/>
            <path stroke-linecap="round" fill="#fff" d="M65.6 19.396a3.2 3.2 0 1 1-6.4 0 3.2 3.2 0 0 1 6.4 0"/>
            <path stroke-linecap="round" fill="#fff" d="M25.6 13.796a3.2 3.2 0 1 1-6.4 0 3.2 3.2 0 0 1 6.4 0"/>
            <path stroke-linecap="round" fill="#fff" d="M52.8 14.596a3.2 3.2 0 1 1-6.4 0 3.2 3.2 0 0 1 6.4 0"/>
            <path fill-rule="evenodd" fill="#fff" d="M14.4 41.796c13.6-2.4 33.6-2.4 43.2 0l3.2-19.2-11.2 17.6v-22.4l-8.8 21.6-4.8-24-4.8 24-8.8-22.4v23.2l-11.2-17.6 3.2 19.2"/>
            <path fill-rule="evenodd" fill="#fff" d="M14.4 41.796c0 3.2 2.4 3.2 4 6.4 1.6 2.4 1.6 1.6.8 5.6-2.4 1.6-2.4 4-2.4 4-2.4 2.4.8 4 .8 4 10.4 1.6 26.4 1.6 36.8 0 0 0 2.4-1.6 0-4 0 0 .8-2.4-1.6-4-.8-4-.8-3.2.8-5.6 1.6-3.2 4-3.2 4-6.4-13.6-2.4-29.6-2.4-43.2 0"/>
            <path stroke-linecap="round" stroke-width="1.6" fill-rule="evenodd" fill-opacity=".75" fill="none" d="M18.4 48.196c5.6-1.6 29.6-1.6 35.2 0"/>
            <path stroke-linecap="round" stroke-width="1.6" fill-rule="evenodd" fill-opacity=".75" fill="none" d="M19.2 53.796c9.6-1.6 24-1.6 33.6 0"/>
            <path stroke-linecap="round" stroke-width="1.6" fill-rule="evenodd" fill-opacity=".75" fill="none" d="M16.8 57.796c8-1.6 29.6-1.6 37.6 0"/>
        </g>
        <g id="b_q"
            stroke-linejoin="round" stroke-width="1.6">
            <path stroke-linecap="round" stroke="#000" d="M12.8 19.398a3.2 3.2 0 1 1-6.4 0 3.2 3.2 0 0 1 6.4 0"/>
            <path stroke-linecap="round" stroke="#000" d="M39.2 12.198a3.2 3.2 0 1 1-6.4 0 3.2 3.2 0 0 1 6.4 0"/>
            <path stroke-linecap="round" stroke="#000" d="M65.6 19.398a3.2 3.2 0 1 1-6.4 0 3.2 3.2 0 0 1 6.4 0"/>
            <path stroke-linecap="round" stroke="#000" d="M25.6 13.798a3.2 3.2 0 1 1-6.4 0 3.2 3.2 0 0 1 6.4 0"/>
            <path stroke-linecap="round" stroke="#000" d="M52.8 14.598a3.2 3.2 0 1 1-6.4 0 3.2 3.2 0 0 1 6.4 0"/>
            <path stroke="#000" fill-rule="evenodd" d="M14.4 41.798c13.6-2.4 33.6-2.4 43.2 0l3.2-19.2-11.2 17.6v-22.4l-8.8 21.6-4.8-24-4.8 24-8.8-22.4v23.2l-11.2-17.6 3.2 19.2"/>
            <path stroke="#000" fill-rule="evenodd" d="M14.4 41.798c0 3.2 2.4 3.2 4 6.4 1.6 2.4 1.6 1.6.8 5.6-2.4 1.6-2.4 4-2.4 4-2.4 2.4.8 4 .8 4 10.4 1.6 26.4 1.6 36.8 0 0 0 2.4-1.6 0-4 0 0 .8-2.4-1.6-4-.8-4-.8-3.2.8-5.6 1.6-3.2 4-3.2 4-6.4-13.6-2.4-29.6-2.4-43.2 0"/>
            <path stroke-linecap="round" stroke="#fff" fill-rule="evenodd" fill-opacity=".75" fill="none" d="M18.4 48.198c5.6-1.6 29.6-1.6 35.2 0"/>
            <path stroke-linecap="round" stroke="#fff" fill-rule="evenodd" fill-opacity=".75" fill="none" d="M19.2 53.798c9.6-1.6 24-1.6 33.6 0"/>
            <path stroke-linecap="round" stroke="#fff" fill-rule="evenodd" fill-opacity=".75" fill="none" d="M16.8 57.798c8-1.6 29.6-1.6 37.6 0"/>
        </g>
        <g id="w_k"
            stroke-width="2.4" stroke="#000" fill-rule="evenodd">
            <path stroke-linecap="round" fill-opacity=".75" fill="none" d="M36.05 18.204v-9"/>
            <path fill="#fff" d="M36.05 39.604s7.2-12 4.8-16.8c0 0-1.6-4-4.8-4-3.2 0-4.8 4-4.8 4-2.4 4.8 4.8 16.8 4.8 16.8"/>
            <path stroke-linejoin="round" stroke-linecap="round" fill="#fff" d="M18.45 58.804c8.8 5.6 24.8 5.6 33.6 0v-11.2s14.4-7.2 9.6-16.8c-6.4-10.4-21.6-5.6-25.6 6.4v5.6v-5.6c-5.6-12-20.8-16.8-25.6-6.4-4.8 9.6 8 16 8 16v12"/>
            <path stroke-linecap="round" fill-opacity=".75" fill="none" d="M32.05 12.404h8"/>
            <path stroke-linecap="round" fill-opacity=".75" fill="none" d="M18.45 46.804c8.8-4 24.8-4 33.6.8"/>
            <path stroke-linejoin="round" stroke-linecap="round" fill-opacity=".75" fill="none" d="M18.45 58.804c8.8-4 24.8-4 33.6 0"/>
            <path stroke-linejoin="round" stroke-linecap="round" fill-opacity=".75" fill="none" d="M18.45 53.204c8.8-3.2 24.8-3.2 33.6 0"/>
        </g>
        <g id="b_k"
            stroke-width="2.4" fill-rule="evenodd">
            <path stroke-linecap="round" stroke="#000" fill="none" d="M36.05 17.802v-9"/>
            <path stroke="#000" d="M36.05 39.202s7.2-12 4.8-16.8c0 0-1.6-4-4.8-4-3.2 0-4.8 4-4.8 4-2.4 4.8 4.8 16.8 4.8 16.8"/>
            <path stroke-linejoin="round" stroke-linecap="round" stroke="#000" d="M18.45 58.402c8.8 5.6 24.8 5.6 33.6 0v-11.2s14.4-7.2 9.6-16.8c-6.4-10.4-21.6-5.6-25.6 6.4v0c-5.6-12-20.8-16.8-25.6-6.4-4.8 9.6 8 16 8 16v12"/>
            <path stroke-linecap="round" stroke="#000" fill="none" d="M32.05 12.002h8"/>
            <path stroke-linecap="round" stroke="#fff" fill="none" d="M18.45 46.402c8.8-4 24.8-4 33.6.8"/>
            <path stroke-linejoin="round" stroke-linecap="round" stroke="#fff" fill="none" d="M18.45 58.402c8.8-4 24.8-4 33.6 0"/>
            <path stroke-linejoin="round" stroke-linecap="round" stroke="#fff" fill="none" d="M18.45 52.802c8.8-3.2 24.8-3.2 33.6 0"/>
            <path stroke-linejoin="round" stroke-linecap="round" stroke="#fff" fill="none" d="M51.25 46.402s13.6-6.4 9.642-15.445c-6.207-9.36-20.842-2.955-24.842 7.445l.02 3.355-.02-3.355c-4-10.4-20.15-16.805-24.805-7.445-3.995 9.045 7.759 14.4 7.759 14.4"/>
        </g>
        
        <path id="coordinate_1"
            d="M16.9 45.852h5.639V26.387l-6.135 1.23v-3.144l6.1-1.23h3.453v22.61h5.64v2.905H16.898l.002-2.906"/>
        <path id="coordinate_2"
            d="M20.052 46.333h12.049v2.905H15.899v-2.905a670.97 670.97 0 0 1 5.35-5.452c2.267-2.29 3.69-3.765 4.272-4.426 1.105-1.242 1.874-2.29 2.307-3.144.445-.867.667-1.716.667-2.547 0-1.356-.479-2.461-1.436-3.315-.945-.855-2.181-1.282-3.708-1.282-1.083 0-2.228.188-3.435.564-1.197.376-2.479.946-3.846 1.709v-3.486c1.39-.559 2.689-.98 3.897-1.265 1.207-.285 2.312-.427 3.315-.427 2.643 0 4.751.66 6.323 1.982 1.573 1.322 2.359 3.088 2.359 5.298 0 1.048-.2 2.045-.598 2.99-.387.935-1.1 2.04-2.137 3.316-.285.33-1.19 1.288-2.717 2.871a2078.28 2078.28 0 0 1-6.46 6.614"/>
        <path id="coordinate_3"
            d="M27.136 34.983c1.652.353 2.94 1.088 3.862 2.205.935 1.117 1.402 2.495 1.402 4.135 0 2.518-.866 4.466-2.598 5.845-1.732 1.379-4.193 2.068-7.383 2.068-1.07 0-2.176-.108-3.315-.325a23.208 23.208 0 0 1-3.504-.94V44.64c.957.558 2.006.98 3.145 1.265 1.14.285 2.33.427 3.572.427 2.165 0 3.811-.427 4.939-1.282 1.14-.855 1.709-2.097 1.709-3.726 0-1.503-.53-2.677-1.59-3.52-1.048-.855-2.512-1.282-4.392-1.282H20.01v-2.837h3.11c1.697 0 2.996-.336 3.896-1.008.9-.683 1.35-1.663 1.35-2.94 0-1.31-.467-2.312-1.4-3.007-.923-.707-2.251-1.06-3.983-1.06-.945 0-1.96.103-3.042.308-1.082.205-2.273.524-3.572.957v-3.076a33.494 33.494 0 0 1 3.675-.82 20.762 20.762 0 0 1 3.247-.274c2.62 0 4.693.598 6.22 1.794 1.527 1.185 2.29 2.792 2.29 4.82 0 1.413-.404 2.609-1.213 3.589-.809.968-1.96 1.64-3.452 2.016v-.001"/>
        <path id="coordinate_4"
            d="M26.222 26.25l-8.716 13.62h8.716V26.25m-.906-3.008h4.34v16.629h3.64v2.87h-3.64v6.017h-3.434v-6.016H14.703v-3.333l10.613-16.167"/>
        <path id="coordinate_5"
            d="M16.822 22.995h13.553V25.9H19.984v6.255a8.992 8.992 0 0 1 1.504-.376 8.375 8.375 0 0 1 1.504-.137c2.848 0 5.104.78 6.767 2.341 1.663 1.561 2.495 3.675 2.495 6.34 0 2.747-.854 4.883-2.563 6.41-1.71 1.515-4.12 2.272-7.23 2.272a20.36 20.36 0 0 1-3.28-.273 26.117 26.117 0 0 1-3.435-.82v-3.47c1.025.559 2.085.975 3.178 1.248s2.25.41 3.47.41c1.97 0 3.531-.518 4.682-1.555 1.15-1.037 1.726-2.444 1.726-4.221 0-1.777-.575-3.184-1.726-4.221-1.15-1.037-2.711-1.556-4.682-1.556-.923 0-1.846.103-2.769.308-.911.205-1.846.524-2.803.957V22.995"/>
        <path id="coordinate_6"
            d="M24.3 34.607c-1.55 0-2.78.53-3.692 1.59-.9 1.06-1.35 2.512-1.35 4.357 0 1.835.45 3.287 1.35 4.358.911 1.06 2.142 1.59 3.691 1.59 1.55 0 2.774-.53 3.674-1.59.912-1.07 1.368-2.523 1.368-4.358 0-1.845-.456-3.298-1.368-4.357-.9-1.06-2.125-1.59-3.674-1.59h.001m6.852-10.818v3.145a13.76 13.76 0 0 0-2.632-.94 10.87 10.87 0 0 0-2.614-.325c-2.279 0-4.022.769-5.23 2.307-1.196 1.538-1.88 3.862-2.05 6.973.672-.991 1.515-1.749 2.529-2.273 1.013-.535 2.13-.803 3.35-.803 2.563 0 4.585.78 6.066 2.341 1.493 1.55 2.239 3.663 2.239 6.34 0 2.62-.775 4.723-2.324 6.307-1.55 1.583-3.612 2.375-6.187 2.375-2.95 0-5.207-1.128-6.768-3.384-1.56-2.267-2.34-5.548-2.34-9.843 0-4.033.957-7.247 2.87-9.64 1.914-2.403 4.483-3.605 7.708-3.605.866 0 1.738.085 2.615.256.889.171 1.811.428 2.768.77v-.001"/>
        <path id="coordinate_7"
            d="M15.797 23.242h16.406v1.47L22.94 48.758h-3.606l8.716-22.61H15.797v-2.906"/>
        <path id="coordinate_8"
            d="M24 36.624c-1.64 0-2.933.439-3.88 1.316-.933.877-1.4 2.085-1.4 3.623 0 1.538.467 2.746 1.4 3.623.947.877 2.24 1.316 3.88 1.316 1.64 0 2.933-.439 3.88-1.316.945-.889 1.418-2.096 1.418-3.623 0-1.538-.473-2.746-1.419-3.623-.934-.877-2.227-1.316-3.879-1.316m-3.452-1.47c-1.481-.365-2.638-1.054-3.47-2.068-.82-1.013-1.23-2.25-1.23-3.708 0-2.04.723-3.652 2.17-4.837 1.459-1.185 3.453-1.777 5.982-1.777 2.54 0 4.534.592 5.981 1.777s2.17 2.798 2.17 4.837c0 1.458-.416 2.694-1.247 3.708-.82 1.014-1.965 1.703-3.435 2.068 1.663.387 2.957 1.145 3.88 2.273.934 1.128 1.401 2.507 1.401 4.136 0 2.472-.758 4.369-2.273 5.69-1.504 1.322-3.663 1.983-6.477 1.983-2.814 0-4.979-.66-6.494-1.982-1.504-1.322-2.256-3.219-2.256-5.691 0-1.63.467-3.008 1.401-4.136.935-1.128 2.234-1.886
            3.897-2.273m-1.265-5.452c0 1.322.41 2.353 1.23 3.094.832.74 1.994 1.11 3.487 1.11 1.481 0 2.638-.37 3.47-1.11.843-.74 1.264-1.772 1.264-3.094 0-1.321-.422-2.352-1.265-3.093-.831-.74-1.988-1.109-3.469-1.109-1.493 0-2.655.37-3.486 1.11-.82.74-1.23 1.772-1.23 3.093l-.001-.001"/>

        <path id="coordinate_a"
            d="M37.812 23.932c-2.541 0-4.302.29-5.281.871-.98.581-1.47 1.573-1.47 2.974 0 1.117.365 2.005 1.094 2.666.74.65 1.743.974 3.008.974 1.743 0 3.138-.615 4.187-1.846 1.06-1.242 1.589-2.888 1.589-4.939v-.7h-3.127m6.271-1.3v10.921H40.94v-2.905c-.718 1.162-1.612 2.022-2.683 2.58-1.071.547-2.381.82-3.93.82-1.96 0-3.521-.547-4.683-1.64-1.15-1.105-1.726-2.58-1.726-4.426 0-2.153.718-3.777 2.153-4.87 1.447-1.094 3.6-1.641 6.46-1.641h4.409v-.308c0-1.447-.479-2.563-1.436-3.35-.945-.797-2.278-1.196-3.999-1.196-1.093 0-2.158.131-3.195.393a12.63 12.63 0 0 0-2.991 1.18v-2.906a20.495 20.495 0 0 1 3.35-.991 15.312 15.312 0 0 1 3.161-.342c2.769 0 4.837.718 6.204 2.153 1.367 1.436 2.05 3.612 2.05 6.529l-.001-.001"/>
        <path id="coordinate_b"
            d="M41.298 24c0-2.313-.479-4.125-1.436-5.435-.945-1.321-2.25-1.982-3.913-1.982-1.663 0-2.973.66-3.93 1.982-.947 1.31-1.42 3.122-1.42 5.435 0 2.313.473 4.13 1.42 5.452.957 1.31 2.267 1.965 3.93 1.965 1.663 0 2.968-.655 3.913-1.965.957-1.322 1.436-3.14 1.436-5.452M30.6 17.318c.66-1.14 1.492-1.983 2.495-2.53 1.013-.558 2.221-.837 3.623-.837 2.324 0 4.21.923 5.657 2.769 1.458 1.845 2.187 4.272 2.187 7.28s-.729 5.435-2.187 7.28c-1.447 1.846-3.332 2.769-5.657 2.769-1.401 0-2.609-.273-3.623-.82-1.003-.559-1.834-1.408-2.495-2.547v2.871h-3.162V6.961H30.6v10.357"/>
        <path id="coordinate_c"
            d="M43.57 15.147v2.94a11.857 11.857 0 0 0-2.682-1.094 9.9 9.9 0 0 0-2.7-.376c-2.04 0-3.624.65-4.751 1.948-1.128 1.288-1.692 3.1-1.692 5.435 0 2.335.564 4.153 1.692 5.452 1.127 1.287 2.71 1.93 4.75 1.93.912 0 1.812-.12 2.7-.358.9-.25 1.795-.62 2.684-1.11v2.904c-.877.41-1.789.718-2.735.923-.933.205-1.93.308-2.99.308-2.883 0-5.173-.906-6.87-2.717-1.698-1.812-2.547-4.256-2.547-7.332 0-3.122.855-5.577 2.564-7.366 1.72-1.789 4.073-2.683 7.058-2.683.968 0 1.914.103 2.837.308.923.193 1.817.49 2.683.888h-.001"/>
        <path id="coordinate_d"
            d="M41.409 17.318V6.96h3.144v26.592H41.41v-2.87c-.66 1.139-1.498 1.987-2.512 2.546-1.003.547-2.21.82-3.623.82-2.313 0-4.199-.923-5.657-2.769-1.447-1.845-2.17-4.272-2.17-7.28s.723-5.435 2.17-7.28c1.458-1.846 3.344-2.769 5.657-2.769 1.413 0 2.62.28 3.623.838 1.013.547 1.85 1.39 2.512 2.529l-.001.001M30.694 24c0 2.313.473 4.13 1.418 5.452.957 1.31 2.267 1.965 3.93 1.965 1.664 0 2.974-.655 3.931-1.965.958-1.322 1.437-3.14 1.437-5.452 0-2.313-.479-4.125-1.436-5.435-.957-1.321-2.267-1.982-3.93-1.982-1.663 0-2.973.66-3.93 1.982-.947 1.31-1.42 3.122-1.42 5.435"/>
        <path id="coordinate_e"
            d="M44.87 23.197v1.538H30.412c.137 2.165.786 3.817 1.948 4.956 1.173 1.128 2.803 1.692 4.888 1.692 1.207 0 2.375-.148 3.503-.445 1.14-.296 2.267-.74 3.384-1.333v2.974a18.846 18.846 0 0 1-3.47 1.094c-1.185.25-2.386.376-3.605.376-3.053 0-5.475-.889-7.264-2.666-1.777-1.777-2.666-4.181-2.666-7.212 0-3.133.843-5.617 2.53-7.451 1.697-1.846 3.982-2.769 6.853-2.769 2.575 0 4.608.832 6.1 2.495 1.505 1.652 2.257 3.902 2.257 6.75v.001m-3.145-.923c-.023-1.72-.507-3.093-1.453-4.119-.933-1.025-2.175-1.538-3.725-1.538-1.755 0-3.162.496-4.221 1.487-1.049.991-1.653 2.387-1.812 4.187l11.211-.017"/>
        <path id="coordinate_f"
            d="M42.093 7.457v2.615h-3.008c-1.128 0-1.914.228-2.359.683-.433.456-.65 1.276-.65 2.461v1.692h5.18v2.444h-5.18V34.05h-3.16V17.352h-3.009v-2.444h3.008v-1.333c0-2.13.496-3.68 1.487-4.648.991-.98 2.564-1.47 4.717-1.47h2.974"/>
        <path id="coordinate_g"
            d="M41.409 23.76c0-2.278-.473-4.044-1.419-5.297-.933-1.253-2.249-1.88-3.947-1.88-1.687 0-3.003.627-3.948 1.88-.934 1.253-1.401 3.02-1.401 5.298 0 2.267.467 4.027 1.401 5.28.945 1.253 2.261 1.88 3.948 1.88 1.697 0 3.013-.627 3.947-1.88.946-1.253 1.419-3.013 1.419-5.28v-.001m3.144 7.418c0 3.258-.723 5.679-2.17 7.263-1.447 1.595-3.663 2.392-6.648 2.392-1.105 0-2.148-.085-3.127-.256-.98-.16-1.931-.41-2.854-.752v-3.059c.923.501 1.834.872 2.734 1.111.9.24 1.817.359 2.752.359 2.062 0 3.605-.541 4.63-1.624 1.026-1.07 1.539-2.694 1.539-4.87v-1.555c-.65 1.127-1.481 1.97-2.495 2.529-1.014.558-2.227.837-3.64.837-2.347 0-4.238-.894-5.674-2.683-1.435-1.789-2.153-4.159-2.153-7.11 0-2.962.718-5.337 2.153-7.126 1.435-1.789 3.327-2.683 5.674-2.683 1.413 0 2.626.28 3.64.838 1.013.558 1.845 1.401 2.495 2.529v-2.905h3.144v16.765"/>
        <path id="coordinate_h"
            d="M44.015 22.496V34.05h-3.144V22.6c0-1.812-.353-3.168-1.06-4.068-.707-.9-1.766-1.35-3.179-1.35-1.697 0-3.036.541-4.016 1.624-.98 1.082-1.47 2.557-1.47 4.426V34.05h-3.161V7.457h3.161v10.425c.752-1.15 1.635-2.01 2.65-2.58 1.025-.57 2.204-.855 3.537-.855 2.199 0 3.862.683 4.99 2.05 1.128 1.356 1.692 3.356 1.692 6v-.001"/>

    </defs>

    <use xlink:href="#light_square" x="49" y="1"/>
    <use xlink:href="#dark_square" x="121" y="1"/>
    <use xlink:href="#light_square" x="193" y="1"/>
    <use xlink:href="#dark_square" x="265" y="1"/>
    <use xlink:href="#light_square" x="337" y="1"/>
    <use xlink:href="#dark_square" x="409" y="1"/>
    <use xlink:href="#light_square" x="481" y="1"/>
    <use xlink:href="#dark_square" x="553" y="1"/>
    <use xlink:href="#dark_square" x="49" y="73"/>
    <use xlink:href="#light_square" x="121" y="73"/>
    <use xlink:href="#dark_square" x="193" y="73"/>
    <use xlink:href="#light_square" x="265" y="73"/>
    <use xlink:href="#dark_square" x="337" y="73"/>
    <use xlink:href="#light_square" x="409" y="73"/>
    <use xlink:href="#dark_square" x="481" y="73"/>
    <use xlink:href="#light_square" x="553" y="73"/>
    <use xlink:href="#light_square" x="49" y="145"/>
    <use xlink:href="#dark_square" x="121" y="145"/>
    <use xlink:href="#light_square" x="193" y="145"/>
    <use xlink:href="#dark_square" x="265" y="145"/>
    <use xlink:href="#light_square" x="337" y="145"/>
    <use xlink:href="#dark_square" x="409" y="145"/>
    <use xlink:href="#light_square" x="481" y="145"/>
    <use xlink:href="#dark_square" x="553" y="145"/>
    <use xlink:href="#dark_square" x="49" y="217"/>
    <use xlink:href="#light_square" x="121" y="217"/>
    <use xlink:href="#dark_square" x="193" y="217"/>
    <use xlink:href="#light_square" x="265" y="217"/>
    <use xlink:href="#dark_square" x="337" y="217"/>
    <use xlink:href="#light_square" x="409" y="217"/>
    <use xlink:href="#dark_square" x="481" y="217"/>
    <use xlink:href="#light_square" x="553" y="217"/>
    <use xlink:href="#light_square" x="49" y="289"/>
    <use xlink:href="#dark_square" x="121" y="289"/>
    <use xlink:href="#light_square" x="193" y="289"/>
    <use xlink:href="#dark_square" x="265" y="289"/>
    <use xlink:href="#light_square" x="337" y="289"/>
    <use xlink:href="#dark_square" x="409" y="289"/>
    <use xlink:href="#light_square" x="481" y="289"/>
    <use xlink:href="#dark_square" x="553" y="289"/>
    <use xlink:href="#dark_square" x="49" y="361"/>
    <use xlink:href="#light_square" x="121" y="361"/>
    <use xlink:href="#dark_square" x="193" y="361"/>
    <use xlink:href="#light_square" x="265" y="361"/>
    <use xlink:href="#dark_square" x="337" y="361"/>
    <use xlink:href="#light_square" x="409" y="361"/>
    <use xlink:href="#dark_square" x="481" y="361"/>
    <use xlink:href="#light_square" x="553" y="361"/>
    <use xlink:href="#light_square" x="49" y="433"/>
    <use xlink:href="#dark_square" x="121" y="433"/>
    <use xlink:href="#light_square" x="193" y="433"/>
    <use xlink:href="#dark_square" x="265" y="433"/>
    <use xlink:href="#light_square" x="337" y="433"/>
    <use xlink:href="#dark_square" x="409" y="433"/>
    <use xlink:href="#light_square" x="481" y="433"/>
    <use xlink:href="#dark_square" x="553" y="433"/>
    <use xlink:href="#dark_square" x="49" y="505"/>
    <use xlink:href="#light_square" x="121" y="505"/>
    <use xlink:href="#dark_square" x="193" y="505"/>
    <use xlink:href="#light_square" x="265" y="505"/>
    <use xlink:href="#dark_square" x="337" y="505"/>
    <use xlink:href="#light_square" x="409" y="505"/>
    <use xlink:href="#dark_square" x="481" y="505"/>
    <use xlink:href="#light_square" x="553" y="505"/>
    <use xlink:href="#borders" x="48" y="0"/>

    {{ coordinates }}

    {{ pieces }}
</svg>
